<svg aria-hidden="true" style="position: absolute; width: 0; height: 0; overflow: hidden;" version="1.1" xmlns="http://www.w3.org/2000/svg" xmlns:xlink="http://www.w3.org/1999/xlink">
<defs>
<symbol id="icon-baseball-set" viewBox="0 0 32 32">
<title>baseball-set</title>
<path d="M27.782 24.266c-0.221-2.106-1.894-3.779-4-4v0c0.016 0.156 0.025 0.315 0.025 0.475 0 2.485-2.015 4.5-4.5 4.5-0.16 0-0.319-0.008-0.475-0.025 0.221 2.106 1.894 3.779 4 4-0.016-0.156-0.025-0.315-0.025-0.475 0-2.485 2.015-4.5 4.5-4.5 0.16 0 0.319 0.008 0.475 0.025v0zM27.776 25.272c-0.242 2.061-1.877 3.696-3.938 3.938-0.021-0.153-0.031-0.31-0.031-0.469 0-1.933 1.567-3.5 3.5-3.5 0.159 0 0.316 0.011 0.469 0.031v0zM22.775 20.272c-2.061 0.242-3.696 1.877-3.938 3.938 0.153 0.021 0.31 0.031 0.469 0.031 1.933 0 3.5-1.567 3.5-3.5 0-0.159-0.011-0.316-0.031-0.469v0zM13.117 15.88l-7.39 8.375 2.285 2.285 8.375-7.39-3.27-3.27zM13.78 15.128l9.762-11.064c1.204-1.364 3.207-1.423 4.486-0.144l0.319 0.319c1.278 1.278 1.214 3.287-0.144 4.486l-11.064 9.762-3.359-3.359zM7.328 27.269c0.185 0.527 0.068 1.138-0.354 1.559-0.59 0.59-1.536 0.586-2.121-0l-1.414-1.414c-0.584-0.584-0.586-1.536-0-2.121 0.424-0.424 1.031-0.541 1.557-0.356l2.332 2.332z"></path>
</symbol>
<symbol id="icon-baseball-set1" viewBox="0 0 32 32">
<title>baseball-set1</title>
<path d="M19.887 25.489v0c-0.036-0.163-0.059-0.353-0.049-0.279 2.061-0.242 3.695-1.877 3.938-3.938 1.558 0.209 2.791 1.442 3 3-2.061 0.242-3.695 1.877-3.938 3.938-1.464-0.196-2.641-1.297-2.951-2.721zM22.765 21.282v0 0c-0.233 1.499-1.417 2.684-2.917 2.917 0.233-1.499 1.417-2.684 2.917-2.917zM26.765 25.282c-0.233 1.499-1.417 2.684-2.917 2.917 0.233-1.499 1.417-2.684 2.917-2.917v0 0zM13.806 16.568l-7.276 8.28 0.89 0.89 8.28-7.276-1.893-1.893zM14.467 15.816l1.984 1.984 11.023-9.687c0.979-0.861 1.023-2.308 0.109-3.222l-0.207-0.207c-0.919-0.919-2.358-0.875-3.222 0.109l-9.687 11.023zM5.868 25.601l-0.662 0.753-0.357-0.357c-0.193-0.193-0.514-0.186-0.704 0.003-0.195 0.195-0.201 0.506-0.003 0.704l1.421 1.421c0.193 0.193 0.514 0.186 0.704-0.003 0.195-0.195 0.201-0.506 0.003-0.704l-0.357-0.357 0.753-0.662-0.798-0.798zM5.092 24.975l18.45-20.91c1.204-1.364 3.207-1.423 4.486-0.144l0.319 0.319c1.278 1.278 1.214 3.287-0.144 4.486l-20.911 18.451c0.234 0.547 0.129 1.206-0.317 1.653-0.59 0.59-1.536 0.586-2.121-0l-1.414-1.414c-0.584-0.584-0.586-1.536-0-2.121 0.45-0.45 1.107-0.554 1.654-0.318v0 0zM23.307 20.241c-2.485 0-4.5 2.015-4.5 4.5s2.015 4.5 4.5 4.5c2.485 0 4.5-2.015 4.5-4.5s-2.015-4.5-4.5-4.5v0z"></path>
</symbol>
<symbol id="icon-baseball" viewBox="0 0 32 32">
<title>baseball</title>
<path d="M25 25.665c-2.23 2.069-5.217 3.335-8.5 3.335s-6.27-1.265-8.5-3.335v0 0c0.541-0.502 1.038-1.052 1.484-1.643l0.736 0.535 0.588-0.809-0.753-0.547c0.496-0.78 0.909-1.619 1.224-2.504l0.93 0.302 0.309-0.951-0.942-0.306c0.236-0.879 0.377-1.797 0.415-2.742h1.010v-1h-1.010c-0.037-0.945-0.179-1.862-0.415-2.742l0.942-0.306-0.309-0.951-0.93 0.302c-0.315-0.885-0.728-1.724-1.224-2.504l0.753-0.547-0.588-0.809-0.736 0.534c-0.446-0.591-0.943-1.14-1.484-1.643v0c2.23-2.069 5.217-3.335 8.5-3.335s6.27 1.265 8.5 3.335v0c-0.541 0.502-1.038 1.052-1.484 1.643l-0.736-0.534-0.588 0.809 0.753 0.547c-0.496 0.78-0.909 1.619-1.224 2.504l-0.93-0.302-0.309 0.951 0.942 0.306c-0.235 0.879-0.377 1.797-0.415 2.742h-1.010v1h1.010c0.037 0.945 0.179 1.862 0.415 2.742v0l-0.942 0.306 0.309 0.951 0.93-0.302c0.315 0.885 0.728 1.724 1.224 2.504l-0.753 0.547 0.588 0.809 0.736-0.535c0.446 0.591 0.942 1.14 1.484 1.643v0 0 0zM26.267 24.301c1.71-2.138 2.733-4.85 2.733-7.801 0-3.261-1.249-6.23-3.294-8.456-0.504 0.465-0.966 0.974-1.381 1.521l0.882 0.641-0.588 0.809-0.863-0.627c-0.437 0.695-0.801 1.44-1.083 2.224l0.971 0.316-0.309 0.951-0.959-0.312c-0.205 0.781-0.331 1.595-0.366 2.432h0.989v1h-0.989c0.036 0.837 0.161 1.651 0.366 2.432l0.959-0.311 0.309 0.951-0.971 0.316c0.282 0.784 0.646 1.529 1.083 2.224l0.863-0.627 0.588 0.809-0.882 0.641c0.414 0.547 0.877 1.057 1.381 1.521-0.014 0.015 0.369-0.414 0.562-0.655v0zM6.645 24.19c-1.657-2.121-2.645-4.79-2.645-7.69 0-3.261 1.249-6.23 3.294-8.456 0.504 0.465 0.966 0.974 1.381 1.521l-0.882 0.641 0.588 0.809 0.863-0.627c0.437 0.695 0.801 1.44 1.083 2.224l-0.971 0.316 0.309 0.951 0.959-0.312c0.205 0.781 0.331 1.595 0.366 2.432h-0.989v1h0.989c-0.036 0.837-0.161 1.651-0.366 2.432l-0.959-0.311-0.309 0.951 0.971 0.316c-0.282 0.784-0.646 1.529-1.083 2.224l-0.863-0.627-0.588 0.809 0.882 0.641c-0.414 0.547-0.877 1.057-1.381 1.521 0.014 0.015-0.431-0.486-0.649-0.765v0z"></path>
</symbol>
<symbol id="icon-baseball1" viewBox="0 0 32 32">
<title>baseball1</title>
<path d="M8.706 24.956v0c0.274-0.298 0.534-0.61 0.778-0.933l0.736 0.535 0.588-0.809-0.753-0.547c0.496-0.78 0.909-1.619 1.224-2.504l0.93 0.302 0.309-0.951-0.942-0.306c0.236-0.879 0.377-1.797 0.415-2.742h1.010v-1h-1.010c-0.037-0.945-0.179-1.862-0.415-2.742l0.942-0.306-0.309-0.951-0.93 0.302c-0.315-0.885-0.728-1.724-1.224-2.504l0.753-0.547-0.588-0.809-0.736 0.534c-0.244-0.324-0.504-0.635-0.778-0.933 2.049-1.89 4.787-3.044 7.794-3.044s5.745 1.154 7.794 3.044c-0.274 0.298-0.534 0.61-0.778 0.933l-0.736-0.534-0.588 0.809 0.753 0.547c-0.496 0.78-0.909 1.619-1.224 2.504l-0.93-0.302-0.309 0.951 0.942 0.306c-0.235 0.879-0.377 1.797-0.415 2.742h-1.010v1h1.010c0.037 0.945 0.179 1.862 0.415 2.742l-0.942 0.306 0.309 0.951 0.93-0.302c0.315 0.885 0.728 1.724 1.224 2.504l-0.753 0.547 0.588 0.809 0.736-0.535c0.244 0.324 0.504 0.635 0.778 0.933v0c-2.049 1.89-4.787 3.044-7.794 3.044s-5.745-1.154-7.794-3.044zM8 24.246c-1.864-2.044-3-4.762-3-7.746s1.136-5.702 3-7.746c0.237 0.26 0.462 0.531 0.675 0.811l-0.882 0.641 0.588 0.809 0.863-0.627c0.437 0.695 0.801 1.44 1.083 2.224l-0.971 0.316 0.309 0.951 0.959-0.312c0.205 0.781 0.331 1.595 0.366 2.432h-0.989v1h0.989c-0.036 0.837-0.161 1.651-0.366 2.432v0l-0.959-0.311-0.309 0.951 0.971 0.316c-0.282 0.784-0.646 1.529-1.083 2.224l-0.863-0.627-0.588 0.809 0.882 0.641c-0.213 0.281-0.438 0.552-0.675 0.811v0zM25 24.246v0 0c-0.237-0.26-0.462-0.531-0.675-0.811l0.882-0.641-0.588-0.809-0.863 0.627c-0.437-0.695-0.801-1.44-1.083-2.224l0.971-0.316-0.309-0.951-0.959 0.311c-0.205-0.781-0.331-1.595-0.366-2.432h0.989v-1h-0.989c0.036-0.837 0.161-1.651 0.366-2.432l0.959 0.312 0.309-0.951-0.971-0.316c0.282-0.784 0.646-1.529 1.083-2.224l0.863 0.627 0.588-0.809-0.882-0.641c0.213-0.281 0.438-0.552 0.675-0.811 1.864 2.044 3 4.762 3 7.746s-1.136 5.702-3 7.746zM16.5 29c6.904 0 12.5-5.596 12.5-12.5s-5.596-12.5-12.5-12.5c-6.904 0-12.5 5.596-12.5 12.5s5.596 12.5 12.5 12.5v0z"></path>
</symbol>
<symbol id="icon-arrow-long-right" viewBox="0 0 40 40">
<title>arrow-long-right</title>
<path d="M28 31v-7h-26v-8h26v-7l10.5 11-10.5 11z"></path>
</symbol>
<symbol id="icon-location-pin" viewBox="0 0 40 40">
<title>location-pin</title>
<path d="M20 4.018c-5.524 0-10 4.458-10 9.98 0 9.548 10 22 10 22s10-12.454 10-22c0-5.52-4.476-9.98-10-9.98zM20 19.52c-2.984 0-5.4-2.418-5.4-5.4s2.416-5.4 5.4-5.4c2.98 0 5.398 2.418 5.398 5.4s-2.418 5.4-5.398 5.4z"></path>
</symbol>
<symbol id="icon-mail" viewBox="0 0 40 40">
<title>mail</title>
<path d="M3.148 10.572c0.976 0.524 14.496 7.788 15 8.058s1.156 0.398 1.812 0.398c0.656 0 1.308-0.128 1.812-0.398s14.024-7.534 15-8.058c0.978-0.526 1.902-2.572 0.108-2.572h-33.838c-1.794 0-0.87 2.046 0.106 2.572zM37.226 14.978c-1.11 0.578-14.774 7.698-15.454 8.054s-1.156 0.398-1.812 0.398-1.132-0.042-1.812-0.398-14.266-7.478-15.376-8.056c-0.78-0.408-0.772 0.070-0.772 0.438s0 14.586 0 14.586c0 0.84 1.132 2 2 2h32c0.868 0 2-1.16 2-2 0 0 0-14.216 0-14.584s0.008-0.846-0.774-0.438z"></path>
</symbol>
<symbol id="icon-phone" viewBox="0 0 40 40">
<title>phone</title>
<path d="M22.458 22.458c-3.166 3.164-6.834 6.192-8.284 4.742-2.074-2.074-3.354-3.882-7.93-0.204-4.574 3.676-1.060 6.128 0.95 8.136 2.32 2.32 10.968 0.124 19.516-8.422 8.546-8.548 10.736-17.196 8.414-19.516-2.010-2.012-4.45-5.524-8.126-0.95-3.678 4.574-1.872 5.854 0.206 7.93 1.444 1.45-1.582 5.118-4.746 8.284z"></path>
</symbol>
<symbol id="icon-facebook-with-circle" viewBox="0 0 40 40">
<title>facebook-with-circle</title>
<path d="M20 0.8c-10.604 0-19.2 8.596-19.2 19.2s8.596 19.2 19.2 19.2 19.2-8.596 19.2-19.2-8.596-19.2-19.2-19.2zM24.548 14.068h-2.886c-0.342 0-0.722 0.45-0.722 1.048v2.084h3.61l-0.546 2.972h-3.064v8.922h-3.406v-8.922h-3.090v-2.972h3.090v-1.748c0-2.508 1.74-4.546 4.128-4.546h2.886v3.162z"></path>
</symbol>
<symbol id="icon-twitter" viewBox="0 0 40 40">
<title>twitter</title>
<path d="M34.632 12.492c0.016 0.324 0.022 0.652 0.022 0.976 0 9.98-7.594 21.484-21.48 21.484-4.266 0-8.232-1.25-11.574-3.394 0.592 0.070 1.192 0.106 1.8 0.106 3.54 0 6.794-1.208 9.376-3.23-3.302-0.062-6.092-2.242-7.052-5.242 0.46 0.086 0.934 0.132 1.42 0.132 0.69 0 1.358-0.090 1.99-0.262-3.454-0.696-6.056-3.746-6.056-7.406 0-0.032 0-0.062 0-0.094 1.018 0.566 2.184 0.906 3.42 0.946-2.026-1.356-3.36-3.664-3.36-6.286 0-1.382 0.372-2.68 1.024-3.796 3.722 4.57 9.288 7.574 15.562 7.89-0.128-0.554-0.194-1.128-0.194-1.722 0-4.168 3.378-7.546 7.548-7.546 2.172 0 4.134 0.914 5.512 2.382 1.718-0.34 3.334-0.968 4.794-1.832-0.564 1.762-1.762 3.242-3.32 4.176 1.528-0.184 2.98-0.586 4.336-1.188-1.012 1.516-2.292 2.844-3.768 3.906z"></path>
</symbol>
<symbol id="icon-instagram" viewBox="0 0 32 32">
<title>instagram</title>
<path d="M16 2.881c4.275 0 4.781 0.019 6.462 0.094 1.563 0.069 2.406 0.331 2.969 0.55 0.744 0.288 1.281 0.638 1.837 1.194 0.563 0.563 0.906 1.094 1.2 1.838 0.219 0.563 0.481 1.412 0.55 2.969 0.075 1.688 0.094 2.194 0.094 6.463s-0.019 4.781-0.094 6.463c-0.069 1.563-0.331 2.406-0.55 2.969-0.288 0.744-0.637 1.281-1.194 1.837-0.563 0.563-1.094 0.906-1.837 1.2-0.563 0.219-1.413 0.481-2.969 0.55-1.688 0.075-2.194 0.094-6.463 0.094s-4.781-0.019-6.463-0.094c-1.563-0.069-2.406-0.331-2.969-0.55-0.744-0.288-1.281-0.637-1.838-1.194-0.563-0.563-0.906-1.094-1.2-1.837-0.219-0.563-0.481-1.413-0.55-2.969-0.075-1.688-0.094-2.194-0.094-6.463s0.019-4.781 0.094-6.463c0.069-1.563 0.331-2.406 0.55-2.969 0.288-0.744 0.638-1.281 1.194-1.838 0.563-0.563 1.094-0.906 1.838-1.2 0.563-0.219 1.412-0.481 2.969-0.55 1.681-0.075 2.188-0.094 6.463-0.094zM16 0c-4.344 0-4.887 0.019-6.594 0.094-1.7 0.075-2.869 0.35-3.881 0.744-1.056 0.412-1.95 0.956-2.837 1.85-0.894 0.888-1.438 1.781-1.85 2.831-0.394 1.019-0.669 2.181-0.744 3.881-0.075 1.713-0.094 2.256-0.094 6.6s0.019 4.887 0.094 6.594c0.075 1.7 0.35 2.869 0.744 3.881 0.413 1.056 0.956 1.95 1.85 2.837 0.887 0.887 1.781 1.438 2.831 1.844 1.019 0.394 2.181 0.669 3.881 0.744 1.706 0.075 2.25 0.094 6.594 0.094s4.888-0.019 6.594-0.094c1.7-0.075 2.869-0.35 3.881-0.744 1.050-0.406 1.944-0.956 2.831-1.844s1.438-1.781 1.844-2.831c0.394-1.019 0.669-2.181 0.744-3.881 0.075-1.706 0.094-2.25 0.094-6.594s-0.019-4.887-0.094-6.594c-0.075-1.7-0.35-2.869-0.744-3.881-0.394-1.063-0.938-1.956-1.831-2.844-0.887-0.887-1.781-1.438-2.831-1.844-1.019-0.394-2.181-0.669-3.881-0.744-1.712-0.081-2.256-0.1-6.6-0.1v0z"></path>
<path d="M16 7.781c-4.537 0-8.219 3.681-8.219 8.219s3.681 8.219 8.219 8.219 8.219-3.681 8.219-8.219c0-4.537-3.681-8.219-8.219-8.219zM16 21.331c-2.944 0-5.331-2.387-5.331-5.331s2.387-5.331 5.331-5.331c2.944 0 5.331 2.387 5.331 5.331s-2.387 5.331-5.331 5.331z"></path>
<path d="M26.462 7.456c0 1.060-0.859 1.919-1.919 1.919s-1.919-0.859-1.919-1.919c0-1.060 0.859-1.919 1.919-1.919s1.919 0.859 1.919 1.919z"></path>
</symbol>
</defs>
</svg>
